<?xml version="1.0" encoding="UTF-8"?>
<svg id="Layer_2" data-name="Layer 2" xmlns="http://www.w3.org/2000/svg" viewBox="0 0 107.56 113.84">
  <defs>
    <style>
      .cls-1 {
        fill: #ff7f14;
      }

      .cls-1, .cls-2, .cls-3, .cls-4, .cls-5, .cls-6, .cls-7, .cls-8 {
        stroke-width: 0px;
      }

      .cls-2 {
        fill: #38342f;
      }

      .cls-3 {
        fill: #75614c;
      }

      .cls-4 {
        fill: #c7c7c7;
      }

      .cls-5 {
        fill: #ffe014;
      }

      .cls-6 {
        fill: #61513f;
      }

      .cls-7 {
        fill: #ffc014;
      }

      .cls-8 {
        fill: #fff;
      }
    </style>
  </defs>
  <g id="OBJECTS">
    <g>
      <path class="cls-3" d="M20.32,93.78c8.42,18.01,33.83,23.92,56.74,13.2,22.92-10.72,34.67-34,26.25-52.01L20.32,93.78Z"/>
      <path class="cls-6" d="M77.07,106.23c22.92-10.72,34.67-34,26.25-52.01l-28.85,13.49c-1.51,5.59-2.3,11.47-2.52,17.46,7.91-2.63,15.57-6,22.84-10.07-5.41,6.41-11.88,11.92-19.07,16.24,6.93-2.74,13.49-6.41,19.47-10.86-7.49,8.79-17.03,15.84-27.64,20.42,7.63-2.19,14.98-5.36,21.81-9.41-10.68,9.57-23.71,16.46-37.59,20.04,8.12.33,16.87-1.36,25.29-5.29Z"/>
      <path class="cls-2" d="M53.77,113.84c-3.7,0-7.34-.4-10.86-1.22-11.17-2.6-19.68-9.06-23.95-18.2-.35-.75-.03-1.64.72-1.99l83-38.81c.36-.17.77-.19,1.15-.05.37.14.68.41.85.77,4.27,9.14,3.78,19.81-1.39,30.05-5.11,10.12-14.2,18.63-25.58,23.95-7.77,3.63-15.99,5.49-23.93,5.49ZM22.35,94.49c4.06,7.58,11.55,12.95,21.24,15.21,10.39,2.42,22.05.97,32.83-4.07,10.78-5.04,19.37-13.06,24.18-22.59,4.49-8.89,5.16-18.08,1.95-26.05L22.35,94.49Z"/>
      <g>
        <ellipse class="cls-2" cx="61.82" cy="74.38" rx="45.81" ry="13.22" transform="translate(-25.68 33.18) rotate(-25.06)"/>
        <path class="cls-2" d="M29.41,98.69c-5.56,0-9.12-1.44-10.44-4.27-1.83-3.91,1.13-9.41,8.57-15.91,6.88-6.02,16.85-12.21,28.06-17.46,20.78-9.71,45.04-15.37,49.09-6.71h0c4.05,8.66-15.85,23.66-36.62,33.37-11.21,5.24-22.36,8.91-31.39,10.34-2.7.43-5.13.64-7.26.64ZM94.33,53.04c-8.13,0-21.8,3.4-37.48,10.73-10.96,5.12-20.68,11.16-27.35,17-5.96,5.21-8.96,9.95-7.83,12.38,1.13,2.43,6.7,3.17,14.52,1.94,8.76-1.38,19.62-4.97,30.58-10.09,23.66-11.06,37.53-24.36,35.18-29.38-.79-1.69-3.49-2.57-7.63-2.57Z"/>
      </g>
      <path class="cls-2" d="M85.56,84.42c-2.56,0-4.81-.97-6.12-2.9-2.52-3.69-.54-9.28,4.5-12.73,2.31-1.58,4.92-2.45,7.37-2.45h.04c2.66,0,4.82,1.03,6.09,2.88h0c1.26,1.85,1.43,4.23.47,6.72-.88,2.29-2.65,4.43-4.97,6.01-2.41,1.65-5.03,2.46-7.37,2.46ZM91.31,69.34c-1.85,0-3.86.68-5.68,1.92-3.54,2.41-5.24,6.33-3.72,8.56,1.52,2.22,5.79,2.06,9.32-.35,1.83-1.25,3.2-2.89,3.87-4.62.59-1.54.54-2.94-.15-3.94h0c-.69-1.01-1.97-1.57-3.62-1.57h-.03Z"/>
      <g>
        <path class="cls-8" d="M77.78,61.6c-7.98,1.45-15.54,5.17-21.55,10.62,1.1,4.37,5.36,7.29,9.41,9.29,2.33,1.15,4.87,1.79,7.46,2.04,12.69-6.56,22.66-13.95,27.46-20-7.25-2.63-15.19-3.33-22.78-1.95Z"/>
        <path class="cls-2" d="M73.11,85.05s-.1,0-.15,0c-2.94-.29-5.62-1.03-7.98-2.19-5.85-2.89-9.19-6.25-10.2-10.27-.13-.54.04-1.11.45-1.48,6.27-5.67,13.97-9.47,22.29-10.98h0c7.84-1.43,15.99-.73,23.56,2.01.45.16.8.54.93,1,.13.46.03.96-.27,1.34-5.08,6.41-15.26,13.84-27.95,20.4-.21.11-.45.17-.69.17ZM57.96,72.7c1.05,2.76,3.79,5.21,8.35,7.47,1.92.95,4.11,1.57,6.51,1.85,10.87-5.66,20.05-12.16,25.17-17.75-6.47-1.98-13.32-2.39-19.93-1.19h0c-7.34,1.34-14.44,4.74-20.1,9.62ZM77.78,61.6h0,0Z"/>
      </g>
      <path class="cls-2" d="M36.48,80.37h-.04c-2.66,0-4.83-1.03-6.09-2.88-1.26-1.85-1.43-4.23-.47-6.72.88-2.29,2.65-4.43,4.97-6.01,5.05-3.45,10.97-3.25,13.5.43h0c2.52,3.69.54,9.28-4.5,12.73-2.31,1.58-4.92,2.45-7.37,2.45ZM42.25,65.32c-1.76,0-3.83.65-5.7,1.92-1.82,1.25-3.2,2.89-3.86,4.62-.59,1.54-.54,2.94.15,3.94.69,1.01,1.97,1.57,3.62,1.57h.03c1.85,0,3.86-.68,5.68-1.92,3.54-2.42,5.24-6.34,3.72-8.56h0c-.72-1.05-2.05-1.57-3.63-1.57Z"/>
      <path class="cls-1" d="M45.53,94.55c6.68-1.84,14.18-4.6,21.89-8.2,4.4-2.06,8.54-4.23,12.34-6.46,0-.02.01-.04.02-.05.89-2.55-.95-5.27-3.65-5.45-3.82-.25-7.54-1.14-10.09-3.86-3.4-3.61-3.47-9.25-2.3-14.07,1.16-4.82,3.35-9.42,3.8-14.35.45-4.94-1.47-10.63-6.08-12.46.89,3.5,1.39,6.7.69,10.25-.7,3.55-3,6.97-6.43,8.11-4.25,1.42-9.07-1.11-11.49-4.88-2.42-3.77-2.91-8.46-2.82-12.94.09-4.48.7-8.98.18-13.43-.52-4.45-2.37-9.02-6.1-11.51,1.69,3.3,1.3,7.02,1.22,10.73-.09,3.8-.62,7.58-1.59,11.26-1.54,5.84-2.63,13.38.97,18.8,1.71,2.58,4.31,4.42,6.49,6.61,3.05,3.05,5.52,7.47,2.15,11.84-1.15,1.5-2.78,2.56-4.57,3.19-5.87,2.07-13.24,1.67-18.09-2.46-4.95-4.22-6.32-11.26-6.64-17.76-.31-6.5.07-13.25-2.49-19.23-2.15-5.01-6.37-9.09-11.45-11.08,5.07,4.61,7.03,12.26,7.74,19.08.71,6.82-.01,13.69-.05,20.54-.04,6.85.67,13.94,3.98,19.94,3.38,6.13,9.25,10.63,15.67,13.43,5.29,2.31,10.97,3.56,16.69,4.41Z"/>
      <path class="cls-7" d="M51.41,92.76c5.08-1.69,10.49-3.83,16.01-6.41.68-.32,1.35-.65,2.01-.97-.11-1.27-.75-2.49-1.58-3.48-1.09-1.29-2.48-2.27-3.72-3.41-6.73-6.15-8.28-17.88-3.57-25.68-2.11,2.42-6.35,4.48-9.5,3.9-.01,4.69-.25,9.94-3.64,13.18-1.97,1.89-4.69,2.75-7.36,3.31-7,1.48-15,1.06-21.92-.73,1.78,6.87,7.39,12.26,13.77,15.36,6.06,2.94,12.81,4.1,19.5,4.92Z"/>
      <path class="cls-5" d="M57.71,89.06c-2.3-2.33-4.09-5.12-4.29-8.39-2.88,2.07-5.85,4.08-9.14,5.39-3.29,1.32-7.41,2.3-10.86,1.46.71.66,1.45,1.28,2.22,1.87,5.04,1.83,10.42,2.71,15.77,3.37,2.4-.8,4.88-1.7,7.41-2.7-.39-.31-.76-.64-1.11-.99Z"/>
      <path class="cls-2" d="M45.53,96.05c-.07,0-.15,0-.22-.02-6.95-1.03-12.38-2.47-17.08-4.52-5.18-2.26-12.22-6.54-16.38-14.08-3.81-6.9-4.2-15.1-4.17-20.67.01-2.24.1-4.5.18-6.69.17-4.51.35-9.18-.12-13.69-.88-8.45-3.32-14.55-7.26-18.12-.54-.49-.65-1.29-.27-1.9.38-.62,1.15-.87,1.82-.61,5.48,2.15,9.95,6.48,12.28,11.89,2.19,5.09,2.34,10.64,2.49,16.01.03,1.25.07,2.5.13,3.74.39,8.06,2.39,13.51,6.11,16.69,4.62,3.94,11.67,3.93,16.61,2.19,1.62-.57,2.96-1.5,3.88-2.69,2.26-2.94,1.58-6.26-2.02-9.87-.67-.67-1.37-1.29-2.11-1.96-1.62-1.45-3.3-2.96-4.57-4.88-3.1-4.68-3.48-11.22-1.17-20.01.94-3.57,1.46-7.24,1.54-10.91.01-.47.03-.95.04-1.42.1-3.11.2-6.05-1.1-8.59-.31-.61-.17-1.35.34-1.8.51-.46,1.26-.51,1.83-.13,4.99,3.33,6.38,9.31,6.76,12.58.37,3.19.19,6.39.02,9.48-.08,1.37-.16,2.78-.18,4.15-.11,5.35.71,9.19,2.58,12.1,1.93,3,6.01,5.52,9.76,4.27,2.64-.88,4.77-3.62,5.43-6.98.64-3.25.19-6.18-.68-9.59-.14-.55.04-1.12.46-1.5.42-.37,1.02-.48,1.54-.27,5.5,2.18,7.5,8.78,7.02,13.99-.3,3.27-1.31,6.37-2.29,9.37-.56,1.7-1.13,3.46-1.55,5.2-.61,2.54-1.66,8.87,1.94,12.69,1.91,2.03,4.8,3.11,9.09,3.39,1.77.12,3.35,1.04,4.34,2.52.98,1.47,1.21,3.26.63,4.91-.12.34-.37.68-.68.86-3.94,2.3-8.13,4.5-12.46,6.52-7.51,3.51-15.16,6.38-22.12,8.29-.13.04-.26.05-.4.05ZM7.27,22.62c1.75,3.64,2.9,8.13,3.46,13.45.49,4.72.31,9.5.13,14.11-.08,2.17-.17,4.4-.18,6.59-.05,8.43,1.12,14.35,3.79,19.2,2.93,5.31,8.24,9.85,14.95,12.78,4.38,1.91,9.47,3.27,16,4.25,6.72-1.87,14.09-4.64,21.34-8.03,4.06-1.9,7.98-3.94,11.69-6.08.1-.64-.04-1.28-.41-1.83-.46-.7-1.2-1.13-2.03-1.19-3.21-.21-7.85-.88-11.09-4.33-4.43-4.71-3.57-11.71-2.67-15.45.45-1.85,1.04-3.67,1.61-5.42.97-2.97,1.88-5.78,2.15-8.71.27-2.98-.41-6.5-2.33-8.84.33,2.21.4,4.55-.09,7.06-.88,4.47-3.73,8.01-7.42,9.24-5.24,1.75-10.62-1.44-13.23-5.49-2.9-4.51-3.13-10.03-3.05-13.79.03-1.43.11-2.87.19-4.26.17-3.1.34-6.04,0-8.97-.27-2.33-.9-4.45-1.82-6.22.06,1.31.01,2.62-.03,3.91-.02.46-.03.93-.04,1.39-.09,3.91-.64,7.81-1.64,11.61-2.08,7.92-1.83,13.67.77,17.59,1.06,1.6,2.52,2.91,4.07,4.3.74.66,1.5,1.35,2.23,2.07,4.64,4.64,5.47,9.68,2.28,13.82-1.27,1.65-3.09,2.92-5.26,3.69-7.02,2.48-14.7,1.41-19.56-2.73-4.39-3.74-6.73-9.9-7.16-18.83-.06-1.26-.1-2.53-.13-3.8-.14-5.09-.28-10.34-2.24-14.91-1.01-2.34-2.48-4.45-4.29-6.21Z"/>
      <g>
        <path class="cls-1" d="M56.54,20.01c-2.12-2.36-3.35-5.51-3.38-8.68s1.13-6.34,3.2-8.74c2.97,5.29,2.83,11.97.17,17.42Z"/>
        <path class="cls-2" d="M56.54,21.51c-.42,0-.83-.18-1.12-.5-2.36-2.62-3.73-6.14-3.76-9.67-.03-3.52,1.27-7.07,3.57-9.74.32-.37.8-.56,1.29-.51.49.05.92.33,1.16.76,3.1,5.52,3.18,12.73.21,18.81-.22.45-.65.76-1.14.83-.07,0-.14.01-.21.01ZM56.1,5.61c-.94,1.74-1.45,3.73-1.43,5.71.02,1.95.55,3.9,1.51,5.61,1.21-3.77,1.19-7.8-.07-11.32Z"/>
      </g>
      <g>
        <path class="cls-1" d="M13.58,16.17c-3.05-.87-5.76-2.88-7.48-5.56-1.71-2.67-2.42-5.97-1.94-9.11,5.33,2.9,8.76,8.63,9.41,14.67Z"/>
        <path class="cls-2" d="M13.58,17.67c-.14,0-.28-.02-.41-.06-3.39-.97-6.42-3.22-8.33-6.19-1.9-2.97-2.69-6.66-2.16-10.15.07-.48.38-.9.82-1.12.44-.22.96-.21,1.38.03,5.56,3.03,9.46,9.09,10.18,15.82.05.5-.14.99-.53,1.31-.27.23-.62.35-.97.35ZM5.55,4.2c.13,1.98.75,3.93,1.82,5.6,1.05,1.64,2.54,3.01,4.26,3.95-.97-3.84-3.14-7.24-6.08-9.55Z"/>
      </g>
      <g>
        <path class="cls-1" d="M75.42,33.89c-1.88-2.56-2.78-5.81-2.5-8.97.28-3.16,1.75-6.2,4.05-8.38,2.43,5.56,1.63,12.19-1.55,17.36Z"/>
        <path class="cls-2" d="M75.42,35.39c-.48,0-.93-.23-1.21-.61-2.08-2.84-3.1-6.48-2.79-9.99.31-3.51,1.96-6.91,4.51-9.34.36-.34.85-.48,1.33-.38.48.1.88.42,1.08.87,2.54,5.8,1.9,12.98-1.65,18.74-.26.42-.72.69-1.22.71-.02,0-.04,0-.06,0ZM76.4,19.51c-1.11,1.64-1.82,3.57-1.99,5.54-.17,1.94.16,3.94.94,5.73,1.58-3.63,1.96-7.65,1.05-11.27Z"/>
      </g>
      <g>
        <path class="cls-4" d="M71.85,69.03c-.06-.75.5-1.39,1.15-1.67.65-.27,1.5-.24,2,.33-.69.22-1.13.38-1.61.59-.48.2-.9.4-1.54.75Z"/>
        <path class="cls-4" d="M79.56,66.23c.26-.85,1.18-1.38,2.09-1.39.91,0,1.83.52,2.1,1.36-.82-.25-1.45-.37-2.1-.36-.65,0-1.27.13-2.09.39Z"/>
        <path class="cls-4" d="M80.22,71.65c.24-.77,1.13-1.21,1.95-1.11.82.09,1.58.72,1.64,1.53-.71-.32-1.22-.47-1.75-.54-.54-.06-1.07-.03-1.83.12Z"/>
        <path class="cls-4" d="M87.77,68.07c.1-.4.39-.73.73-.95.34-.23.75-.35,1.16-.38.41-.01.83.06,1.19.25.36.18.68.48.82.87-.8-.13-1.36-.15-1.96-.12-.61.03-1.16.12-1.94.33Z"/>
        <path class="cls-4" d="M85.49,64.25c.5-.61,1.31-.78,2.03-.69.72.11,1.45.51,1.76,1.23-.77-.06-1.31-.17-1.9-.24-.59-.09-1.14-.15-1.89-.3Z"/>
      </g>
    </g>
  </g>
</svg>