<svg width="44" height="44" viewBox="0 0 44 44" fill="none" xmlns="http://www.w3.org/2000/svg">
<g filter="url(#filter0_d_16_108)">
<circle cx="22" cy="22" r="14" fill="#1C75FD"/>
</g>
<path d="M24.5 29.225C24.3417 29.225 24.1834 29.1667 24.0584 29.0417L18.625 23.6084C17.7417 22.725 17.7417 21.275 18.625 20.3917L24.0584 14.9583C24.3 14.7167 24.7 14.7167 24.9417 14.9583C25.1834 15.2 25.1834 15.6 24.9417 15.8417L19.5084 21.275C19.1084 21.675 19.1084 22.325 19.5084 22.725L24.9417 28.1583C25.1834 28.4 25.1834 28.8 24.9417 29.0417C24.8167 29.1584 24.6584 29.225 24.5 29.225Z" fill="white"/>
<defs>
<filter id="filter0_d_16_108" x="0" y="0" width="44" height="44" filterUnits="userSpaceOnUse" color-interpolation-filters="sRGB">
<feFlood flood-opacity="0" result="BackgroundImageFix"/>
<feColorMatrix in="SourceAlpha" type="matrix" values="0 0 0 0 0 0 0 0 0 0 0 0 0 0 0 0 0 0 127 0" result="hardAlpha"/>
<feMorphology radius="2" operator="dilate" in="SourceAlpha" result="effect1_dropShadow_16_108"/>
<feOffset/>
<feGaussianBlur stdDeviation="3"/>
<feComposite in2="hardAlpha" operator="out"/>
<feColorMatrix type="matrix" values="0 0 0 0 0.109804 0 0 0 0 0.458824 0 0 0 0 0.992157 0 0 0 0.3 0"/>
<feBlend mode="normal" in2="BackgroundImageFix" result="effect1_dropShadow_16_108"/>
<feBlend mode="normal" in="SourceGraphic" in2="effect1_dropShadow_16_108" result="shape"/>
</filter>
</defs>
</svg>
