<svg width="26" height="26" viewBox="0 0 26 26" fill="none" xmlns="http://www.w3.org/2000/svg">
<g id="vuesax/bulk/messages-2">
<g id="messages-2">
<path id="Vector" opacity="0.4" d="M20.0092 18.2325L20.4317 21.6558C20.54 22.555 19.5758 23.1833 18.8067 22.7175L14.2675 20.02C13.7692 20.02 13.2817 19.9875 12.805 19.9225C13.6067 18.98 14.0833 17.7883 14.0833 16.4992C14.0833 13.4225 11.4183 10.9309 8.125 10.9309C6.86833 10.9309 5.70917 11.2884 4.745 11.9167C4.7125 11.6459 4.70166 11.375 4.70166 11.0933C4.70166 6.16418 8.98083 2.16669 14.2675 2.16669C19.5542 2.16669 23.8333 6.16418 23.8333 11.0933C23.8333 14.0183 22.3275 16.6075 20.0092 18.2325Z" fill="white"/>
<path id="Vector_2" d="M14.0834 16.4991C14.0834 17.7883 13.6067 18.98 12.805 19.9225C11.7325 21.2225 10.0317 22.0566 8.12502 22.0566L5.29752 23.7358C4.82085 24.0283 4.21418 23.6275 4.27918 23.075L4.55002 20.9408C3.09835 19.9333 2.16669 18.3191 2.16669 16.4991C2.16669 14.5925 3.18503 12.9133 4.74503 11.9167C5.70919 11.2883 6.86835 10.9308 8.12502 10.9308C11.4184 10.9308 14.0834 13.4225 14.0834 16.4991Z" fill="white"/>
</g>
</g>
</svg>
